<svg xmlns="http://www.w3.org/2000/svg" xmlns:xlink="http://www.w3.org/1999/xlink" width="280" height="68" viewBox="0 0 280 68">
  <defs>
    <clipPath id="clip-path">
      <path id="Path_3" data-name="Path 3" d="M42.479-100.456S18.3-53.725,17.66-43.336s4.81,3.138,5.576.12,2.858-11.94,5.863-21.405c3.152-9.928,13.381-35.836,13.381-35.836" transform="translate(-17.608 100.456)" fill="none" clip-rule="evenodd"/>
    </clipPath>
    <clipPath id="clip-path-2">
      <path id="Path_2" data-name="Path 2" d="M-195,27.222H328.911V-343H-195Z" transform="translate(195 343)" fill="none"/>
    </clipPath>
    <clipPath id="clip-path-3">
      <path id="Path_6" data-name="Path 6" d="M60.895-75.086S44.153-40.426,43.9-32.793s3.6,2.226,4.093,0,1.84-8.8,3.842-15.793c2.1-7.332,9.055-26.5,9.055-26.5" transform="translate(-43.893 75.086)" fill="none" clip-rule="evenodd"/>
    </clipPath>
    <clipPath id="clip-path-5">
      <path id="Path_9" data-name="Path 9" d="M72.291-51.831s-11.4,23.616-11.574,28.815,2.451,1.518,2.789,0,1.253-6,2.618-10.761c1.432-4.995,6.166-18.054,6.166-18.054" transform="translate(-60.709 51.831)" fill="none" clip-rule="evenodd"/>
    </clipPath>
    <clipPath id="clip-path-7">
      <path id="Path_14" data-name="Path 14" d="M405.061-45.485v-14.24h-3.385v9.768l-7.444-9.768h-3.173v14.24h-3.733v-14.24h-3.384v14.24h-4.774a7.041,7.041,0,0,0,1.756-1.411v-5.384h-3.407v4.168a5.8,5.8,0,0,1-2.929.674,4.091,4.091,0,0,1-3.028-1.294,4.69,4.69,0,0,1-1.271-3.439,4.648,4.648,0,0,1,1.327-3.462,4.427,4.427,0,0,1,3.252-1.313,5.067,5.067,0,0,1,1.857.337,6.721,6.721,0,0,1,1.879,1.226l1.757-2.539a8.244,8.244,0,0,0-5.675-2.15,7.689,7.689,0,0,0-5.578,2.258,7.5,7.5,0,0,0-2.313,5.6,7.9,7.9,0,0,0,.988,3.962,7.334,7.334,0,0,0,2.725,2.766h-9.727v-5.057l5.254-9.182h-3.668l-3.278,5.644-3.28-5.644h-3.666l5.253,9.182v5.057h-4.256L347-59.724h-3.275l-6.168,14.24h-2.5v.933h5.708l1.411-3.277h.006l1.282-2.972h-.007l1.911-4.408v0l0-.011,4.58,10.658,0,.008h44.489v-9.506l7.23,9.506h5.491v-.933Z" transform="translate(-335.06 60.07)" fill="none" clip-rule="evenodd"/>
    </clipPath>
    <clipPath id="clip-path-9">
      <path id="Path_17" data-name="Path 17" d="M266.9-45.485v-14.24h-3.385v9.768l-7.449-9.768H252.9v14.24h-2.174l-6.14-14.24h-3.278l-6.165,14.24h-1.193l-5.363-7.531,6.037-6.709H230.43l-5.727,6.23v-6.23h-3.388v14.24h-3.188l-3.17-4.493q2.882-1.062,2.885-4.71a4.6,4.6,0,0,0-1.508-3.842q-1.509-1.2-5.046-1.2h-5.753v14.24H202.52v-2.061h-7.791V-50.7h6.793v-2.884h-6.793v-3.126h7.553v-3.019H191.343v14.24H186.7a4.214,4.214,0,0,0,1.757-3.624,3.74,3.74,0,0,0-1.2-2.952,7.756,7.756,0,0,0-3.353-1.6,10.842,10.842,0,0,1-2.754-.922,1.2,1.2,0,0,1-.6-1.052,1.309,1.309,0,0,1,.492-1.063,2.034,2.034,0,0,1,1.332-.4,6.711,6.711,0,0,1,4.084,1.5l1.716-2.473a8.164,8.164,0,0,0-2.649-1.477,9.374,9.374,0,0,0-3.04-.52,6.26,6.26,0,0,0-3.876,1.171,3.94,3.94,0,0,0-1.551,3.334,3.871,3.871,0,0,0,1.225,3.167,9.744,9.744,0,0,0,3.875,1.638,7.4,7.4,0,0,1,2.238.813,1.275,1.275,0,0,1,.566,1.087,1.292,1.292,0,0,1-.534,1.085,2.386,2.386,0,0,1-1.465.4,7.174,7.174,0,0,1-4.535-2.147l-2.019,2.473a8.819,8.819,0,0,0,2.169,1.564h-2.951v.933h33.3V-56.815h2.541a4.17,4.17,0,0,1,2.277.455,1.916,1.916,0,0,1,.653,1.682,2.3,2.3,0,0,1-.628,1.791,3.643,3.643,0,0,1-2.366.565h-2.1l5.331,7.77H224.7v-4.3l1.516-1.693,4.455,5.99h7.68l1.412-3.277h0l1.281-2.972h-.007l1.909-4.408,4.583,10.658h8.747v-9.506l7.229,9.506H269v-.933Z" transform="translate(-175.626 60.07)" fill="none" clip-rule="evenodd"/>
    </clipPath>
    <clipPath id="clip-path-11">
      <path id="Path_20" data-name="Path 20" d="M142.188-45.275a1.888,1.888,0,0,0,.454-1.281,1.8,1.8,0,0,0-.554-1.313,1.852,1.852,0,0,0-1.359-.553,1.85,1.85,0,0,0-1.356.553,1.819,1.819,0,0,0-.552,1.325,1.863,1.863,0,0,0,.434,1.269h-2.974l-3.168-4.493Q136-50.83,136-54.477a4.6,4.6,0,0,0-1.51-3.842q-1.506-1.2-5.045-1.2h-5.751v14.24H116.7q3.776-1.8,3.776-6.663a7.2,7.2,0,0,0-2.168-5.589,8.911,8.911,0,0,0-6.23-1.987h-5.363l-.02,15.172h20.372v-8.32l.008.009V-56.6h2.539a4.175,4.175,0,0,1,2.279.455,1.911,1.911,0,0,1,.651,1.682,2.282,2.282,0,0,1-.628,1.791,3.638,3.638,0,0,1-2.365.565h-2.106l4.741,6.907.6.863h11.069v-.933Zm-29.936-2.061h-2.145v-9.226h1.887a5.332,5.332,0,0,1,3.832,1.207,4.555,4.555,0,0,1,1.248,3.438,4.452,4.452,0,0,1-1.248,3.408A5.026,5.026,0,0,1,112.252-47.336Z" transform="translate(-106.699 59.514)" fill="none" clip-rule="evenodd"/>
    </clipPath>
    <clipPath id="clip-path-13">
      <path id="Path_23" data-name="Path 23" d="M114.614-21.277a2.223,2.223,0,0,1-.012.238.92.92,0,0,1-.03.177.659.659,0,0,1-.052.133.7.7,0,0,1-.12.144,2.283,2.283,0,0,1-.353.255,4.1,4.1,0,0,1-.671.338,5.469,5.469,0,0,1-.918.278,5.181,5.181,0,0,1-1.131.115,5,5,0,0,1-1.92-.353A3.849,3.849,0,0,1,107.949-21a4.786,4.786,0,0,1-.926-1.707,7.683,7.683,0,0,1-.323-2.338,7.716,7.716,0,0,1,.348-2.419,5.191,5.191,0,0,1,.983-1.8,4.214,4.214,0,0,1,1.512-1.129,4.817,4.817,0,0,1,1.951-.383,4.665,4.665,0,0,1,.917.086,6.088,6.088,0,0,1,.827.223,3.833,3.833,0,0,1,.674.311,2.33,2.33,0,0,1,.408.292,1.013,1.013,0,0,1,.147.173.533.533,0,0,1,.054.139,1.08,1.08,0,0,1,.034.19,2.539,2.539,0,0,1,.014.262,2.337,2.337,0,0,1-.016.286,1.115,1.115,0,0,1-.049.2.371.371,0,0,1-.082.119.176.176,0,0,1-.117.038.62.62,0,0,1-.327-.166,5.131,5.131,0,0,0-.548-.36,4.307,4.307,0,0,0-.811-.365,3.566,3.566,0,0,0-1.149-.163,3,3,0,0,0-1.327.29,2.8,2.8,0,0,0-1.02.854,4.2,4.2,0,0,0-.655,1.378,6.731,6.731,0,0,0-.233,1.858,6.736,6.736,0,0,0,.223,1.834,3.8,3.8,0,0,0,.644,1.33,2.668,2.668,0,0,0,1.029.808,3.3,3.3,0,0,0,1.381.273,3.7,3.7,0,0,0,1.141-.157,4.547,4.547,0,0,0,.828-.359,6.117,6.117,0,0,0,.562-.359.672.672,0,0,1,.347-.161.207.207,0,0,1,.1.027.169.169,0,0,1,.068.1.954.954,0,0,1,.035.2,2.988,2.988,0,0,1,.017.318" transform="translate(-106.7 30.77)" fill="none" clip-rule="evenodd"/>
    </clipPath>
    <clipPath id="clip-path-15">
      <path id="Path_26" data-name="Path 26" d="M128.157-20.317a2.03,2.03,0,0,1-.017.284.711.711,0,0,1-.057.194.283.283,0,0,1-.092.116.219.219,0,0,1-.129.039h-4.82a.6.6,0,0,1-.365-.131.539.539,0,0,1-.174-.459V-30.368a.218.218,0,0,1,.033-.119.238.238,0,0,1,.119-.079,1.419,1.419,0,0,1,.226-.05,2.572,2.572,0,0,1,.346-.021,2.468,2.468,0,0,1,.347.021,1.31,1.31,0,0,1,.225.05.249.249,0,0,1,.119.079.218.218,0,0,1,.034.119v9.429h3.909a.222.222,0,0,1,.129.038.292.292,0,0,1,.092.109.6.6,0,0,1,.057.189,2.09,2.09,0,0,1,.017.286" transform="translate(-122.503 30.638)" fill="none" clip-rule="evenodd"/>
    </clipPath>
    <clipPath id="clip-path-17">
      <path id="Path_29" data-name="Path 29" d="M136.592-19.9a.213.213,0,0,1-.034.118.214.214,0,0,1-.116.08,1.246,1.246,0,0,1-.226.051,2.127,2.127,0,0,1-.349.021,2.153,2.153,0,0,1-.345-.021,1.169,1.169,0,0,1-.227-.051.221.221,0,0,1-.119-.08.217.217,0,0,1-.031-.118V-30.368a.2.2,0,0,1,.035-.121.264.264,0,0,1,.128-.078,1.4,1.4,0,0,1,.228-.05,2.361,2.361,0,0,1,.332-.021,2.527,2.527,0,0,1,.349.021,1.436,1.436,0,0,1,.226.05.23.23,0,0,1,.116.078.224.224,0,0,1,.034.121Z" transform="translate(-135.145 30.638)" fill="none" clip-rule="evenodd"/>
    </clipPath>
    <clipPath id="clip-path-19">
      <path id="Path_32" data-name="Path 32" d="M150.369-20.268a.68.68,0,0,1-.055.288.55.55,0,0,1-.149.194.585.585,0,0,1-.2.108.782.782,0,0,1-.231.033h-.473a1.628,1.628,0,0,1-.4-.044.887.887,0,0,1-.319-.169,1.8,1.8,0,0,1-.309-.332,4.864,4.864,0,0,1-.322-.54l-3.325-6.2q-.26-.482-.526-1.008c-.179-.35-.34-.689-.493-1.023h-.018c.012.4.021.818.026,1.239s.008.839.008,1.256v6.581a.185.185,0,0,1-.035.114.229.229,0,0,1-.123.085,1.432,1.432,0,0,1-.22.05,2.216,2.216,0,0,1-.353.019,2.2,2.2,0,0,1-.349-.019,1.394,1.394,0,0,1-.218-.05.255.255,0,0,1-.117-.085.2.2,0,0,1-.032-.114V-29.949a.548.548,0,0,1,.191-.478.666.666,0,0,1,.418-.145h.709a1.879,1.879,0,0,1,.425.042.869.869,0,0,1,.3.14,1.124,1.124,0,0,1,.261.269,3.454,3.454,0,0,1,.264.434l2.557,4.786c.159.293.31.579.457.857s.29.551.424.819.271.535.4.8.266.521.4.786h.008c-.012-.443-.02-.906-.02-1.386s0-.943,0-1.386v-5.914a.2.2,0,0,1,.034-.111.307.307,0,0,1,.12-.088.8.8,0,0,1,.223-.054,2.807,2.807,0,0,1,.358-.018,2.708,2.708,0,0,1,.342.018.751.751,0,0,1,.222.054.283.283,0,0,1,.113.088.189.189,0,0,1,.035.111Z" transform="translate(-142.132 30.598)" fill="none" clip-rule="evenodd"/>
    </clipPath>
    <clipPath id="clip-path-21">
      <path id="Path_35" data-name="Path 35" d="M161.481-19.9a.209.209,0,0,1-.034.118.222.222,0,0,1-.118.08,1.179,1.179,0,0,1-.227.051,2.092,2.092,0,0,1-.348.021,2.135,2.135,0,0,1-.343-.021,1.153,1.153,0,0,1-.228-.051.219.219,0,0,1-.119-.08.209.209,0,0,1-.034-.118V-30.368a.2.2,0,0,1,.038-.121.284.284,0,0,1,.128-.078,1.419,1.419,0,0,1,.226-.05,2.414,2.414,0,0,1,.333-.021,2.481,2.481,0,0,1,.348.021,1.347,1.347,0,0,1,.227.05.24.24,0,0,1,.118.078.219.219,0,0,1,.034.121Z" transform="translate(-160.029 30.638)" fill="none" clip-rule="evenodd"/>
    </clipPath>
    <clipPath id="clip-path-23">
      <path id="Path_38" data-name="Path 38" d="M173.918-21.277c0,.091,0,.169-.01.238a.8.8,0,0,1-.03.177.568.568,0,0,1-.054.133.847.847,0,0,1-.116.144,2.561,2.561,0,0,1-.358.255,3.9,3.9,0,0,1-.668.338,5.588,5.588,0,0,1-.917.278,5.254,5.254,0,0,1-1.134.115,4.994,4.994,0,0,1-1.92-.353A3.866,3.866,0,0,1,167.257-21a4.7,4.7,0,0,1-.928-1.707,7.628,7.628,0,0,1-.321-2.338,7.683,7.683,0,0,1,.346-2.419,5.241,5.241,0,0,1,.982-1.8,4.218,4.218,0,0,1,1.513-1.129,4.815,4.815,0,0,1,1.951-.383,4.712,4.712,0,0,1,.919.086,5.945,5.945,0,0,1,.824.223,3.969,3.969,0,0,1,.677.311,2.287,2.287,0,0,1,.406.292.9.9,0,0,1,.147.173.534.534,0,0,1,.055.139,1.081,1.081,0,0,1,.033.19,2.621,2.621,0,0,1,.017.262,2.146,2.146,0,0,1-.021.286.627.627,0,0,1-.05.2.27.27,0,0,1-.081.119.173.173,0,0,1-.116.038.621.621,0,0,1-.328-.166,5.055,5.055,0,0,0-.548-.36,4.322,4.322,0,0,0-.81-.365,3.591,3.591,0,0,0-1.15-.163,2.99,2.99,0,0,0-1.327.29,2.8,2.8,0,0,0-1.022.854,4.313,4.313,0,0,0-.655,1.378,6.777,6.777,0,0,0-.233,1.858,6.782,6.782,0,0,0,.225,1.834,3.758,3.758,0,0,0,.645,1.33,2.663,2.663,0,0,0,1.027.808,3.317,3.317,0,0,0,1.382.273,3.716,3.716,0,0,0,1.142-.157,4.61,4.61,0,0,0,.827-.359,6.159,6.159,0,0,0,.564-.359.664.664,0,0,1,.347-.161.187.187,0,0,1,.1.027.161.161,0,0,1,.068.1.849.849,0,0,1,.038.2c.008.083.014.19.014.318" transform="translate(-166.007 30.77)" fill="none" clip-rule="evenodd"/>
    </clipPath>
  </defs>
  <g id="Group_47" data-name="Group 47" transform="translate(-210 -66)">
    <rect id="Rectangle_30" data-name="Rectangle 30" width="57" height="55" transform="translate(210 79)" fill="#fff"/>
    <g id="Group_39" data-name="Group 39" transform="translate(524 46)">
      <g id="Group_35" data-name="Group 35" transform="translate(-524 20)">
        <g id="Group_31" data-name="Group 31" transform="translate(210 0)">
          <g id="Group_2" data-name="Group 2" transform="translate(10.368)" clip-path="url(#clip-path)">
            <g id="Group_1" data-name="Group 1" transform="translate(-132.289 -150.916)" clip-path="url(#clip-path-2)">
              <path id="Path_1" data-name="Path 1" d="M12.608-105.456H43.7v68.748H12.608Z" transform="translate(116.57 253.261)" fill="#4c4d4c"/>
            </g>
          </g>
          <g id="Group_4" data-name="Group 4" transform="translate(26.723 15.786)" clip-path="url(#clip-path-3)">
            <g id="Group_3" data-name="Group 3" transform="translate(-148.645 -166.702)" clip-path="url(#clip-path-2)">
              <path id="Path_4" data-name="Path 4" d="M38.893-80.086H62.117v52.459H38.893Z" transform="translate(106.64 243.677)" fill="#4c4d4c"/>
            </g>
          </g>
          <g id="Group_6" data-name="Group 6" transform="translate(37.186 30.256)" clip-path="url(#clip-path-5)">
            <g id="Group_5" data-name="Group 5" transform="translate(-159.108 -181.172)" clip-path="url(#clip-path-2)">
              <path id="Path_7" data-name="Path 7" d="M55.709-56.831h17.8v37.725h-17.8Z" transform="translate(100.288 234.892)" fill="#4c4d4c"/>
            </g>
          </g>
          <g id="Group_7" data-name="Group 7" transform="translate(0 40.183)">
            <path id="Path_10" data-name="Path 10" d="M0,.5H56.944" transform="translate(0 -0.5)" fill="none" stroke="#4c4d4c" stroke-width="0.5"/>
          </g>
        </g>
      </g>
      <g id="Group_36" data-name="Group 36" transform="translate(-314 20)">
        <g id="Group_10" data-name="Group 10" transform="translate(207.894 25.129)" clip-path="url(#clip-path-7)">
          <g id="Group_9" data-name="Group 9" transform="translate(-329.815 -176.045)" clip-path="url(#clip-path-2)">
            <path id="Path_12" data-name="Path 12" d="M330.06-65.07h78.328v21.74H330.06Z" transform="translate(-3.356 238.004)" fill="#4c4d4c"/>
          </g>
        </g>
        <g id="Group_12" data-name="Group 12" transform="translate(108.69 25.129)" clip-path="url(#clip-path-9)">
          <g id="Group_11" data-name="Group 11" transform="translate(-230.612 -176.045)" clip-path="url(#clip-path-2)">
            <path id="Path_15" data-name="Path 15" d="M170.626-65.07h99.6v21.74h-99.6Z" transform="translate(56.874 238.004)" fill="#4c4d4c"/>
          </g>
        </g>
        <g id="Group_14" data-name="Group 14" transform="translate(65.803 25.475)" clip-path="url(#clip-path-11)">
          <g id="Group_13" data-name="Group 13" transform="translate(-187.724 -176.391)" clip-path="url(#clip-path-2)">
            <path id="Path_18" data-name="Path 18" d="M101.7-64.514h43.379V-43.12H101.7Z" transform="translate(82.913 237.794)" fill="#4c4d4c"/>
          </g>
        </g>
      </g>
      <g id="Group_37" data-name="Group 37" transform="translate(-314 20)">
        <g id="Group_16" data-name="Group 16" transform="translate(65.803 43.36)" clip-path="url(#clip-path-13)">
          <g id="Group_15" data-name="Group 15" transform="translate(-187.724 -194.276)" clip-path="url(#clip-path-2)">
            <path id="Path_21" data-name="Path 21" d="M101.7-35.77h14.136v17.393H101.7Z" transform="translate(82.913 226.935)" fill="#4c4d4c"/>
          </g>
        </g>
        <g id="Group_18" data-name="Group 18" transform="translate(75.636 43.442)" clip-path="url(#clip-path-15)">
          <g id="Group_17" data-name="Group 17" transform="translate(-197.558 -194.358)" clip-path="url(#clip-path-2)">
            <path id="Path_24" data-name="Path 24" d="M117.5-35.638H129.38v17.177H117.5Z" transform="translate(76.943 226.885)" fill="#4c4d4c"/>
          </g>
        </g>
        <g id="Group_20" data-name="Group 20" transform="translate(83.502 43.442)" clip-path="url(#clip-path-17)">
          <g id="Group_19" data-name="Group 19" transform="translate(-205.423 -194.358)" clip-path="url(#clip-path-2)">
            <path id="Path_27" data-name="Path 27" d="M130.145-35.638h7.67v17.226h-7.67Z" transform="translate(72.167 226.885)" fill="#4c4d4c"/>
          </g>
        </g>
        <g id="Group_22" data-name="Group 22" transform="translate(87.849 43.467)" clip-path="url(#clip-path-19)">
          <g id="Group_21" data-name="Group 21" transform="translate(-209.771 -194.383)" clip-path="url(#clip-path-2)">
            <path id="Path_30" data-name="Path 30" d="M137.132-35.6h14.46v17.2h-14.46Z" transform="translate(69.528 226.87)" fill="#4c4d4c"/>
          </g>
        </g>
        <g id="Group_24" data-name="Group 24" transform="translate(98.986 43.442)" clip-path="url(#clip-path-21)">
          <g id="Group_23" data-name="Group 23" transform="translate(-220.907 -194.358)" clip-path="url(#clip-path-2)">
            <path id="Path_33" data-name="Path 33" d="M155.029-35.638H162.7v17.226h-7.674Z" transform="translate(62.767 226.885)" fill="#4c4d4c"/>
          </g>
        </g>
        <g id="Group_26" data-name="Group 26" transform="translate(102.705 43.36)" clip-path="url(#clip-path-23)">
          <g id="Group_25" data-name="Group 25" transform="translate(-224.627 -194.276)" clip-path="url(#clip-path-2)">
            <path id="Path_36" data-name="Path 36" d="M161.007-35.77H175.14v17.393H161.007Z" transform="translate(60.508 226.935)" fill="#4c4d4c"/>
          </g>
        </g>
      </g>
    </g>
  </g>
</svg>
