<?xml version="1.0" encoding="UTF-8"?>
<svg width="512px" height="128px" viewBox="0 0 512 128" version="1.1" xmlns="http://www.w3.org/2000/svg" xmlns:xlink="http://www.w3.org/1999/xlink">
    <!-- Generator: Sketch 52.6 (67491) - http://www.bohemiancoding.com/sketch -->
    <title>Brand / Logo</title>
    <desc>Created with Sketch.</desc>
    <g id="Brand-/-Logo" stroke="none" stroke-width="1" fill="none" fill-rule="evenodd">
        <g id="Metabeta-symbol" fill-rule="nonzero">
            <path d="M64,128 C28.653776,128 0,99.346224 0,64 C0,28.653776 28.653776,0 64,0 C99.346224,0 128,28.653776 128,64 C128,99.346224 99.346224,128 64,128 Z" id="Outer-circle" fill="#032342"></path>
            <path d="M64,116 C92.718807,116 116,92.718807 116,64 C116,35.281193 92.718807,12 64,12 C35.281193,12 12,35.281193 12,64 C12,92.718807 35.281193,116 64,116 Z" id="Inner-circle" fill="#FFFFFF"></path>
            <path d="M64,51.5550769 L90.7825018,32 L96,92 L84.1096077,92 L83.043062,79.7349767 L64,65.8308035 L44.956938,79.7349767 L43.8903923,92 L32,92 L37.2174982,32 L64,51.5550769 Z M74,58.1507937 L82,64 L81.0447761,53 L74,58.1507937 Z M54,58.1507937 L46.9552239,53 L46,64 L54,58.1507937 Z" id="M" fill="#032342"></path>
        </g>
        <path d="M486.927479,92.7078553 C478.445012,92.7078553 472,87.2191999 472,79.1941204 C472,71.0858794 478.237108,66.3872577 489.339161,65.7219662 L500.565957,65.0566746 L500.565957,62.1044433 C500.565957,57.946371 497.655306,55.5346891 493.081426,55.5346891 C488.549128,55.5346891 485.680058,57.7800481 485.097928,61.0649252 L473.995875,61.0649252 C474.453263,52.4161349 481.813051,46.4700915 493.621976,46.4700915 C505.056675,46.4700915 512.499624,52.3745542 512.499624,61.3559903 L512.499624,92.000983 L500.77386,92.000983 L500.77386,85.1817444 L500.524376,85.1817444 C498.029532,89.9219468 492.499296,92.7078553 486.927479,92.7078553 Z M490.919229,83.9343228 C496.199981,83.9343228 500.565957,80.4831228 500.565957,75.6597589 L500.565957,72.4164625 L491.168713,72.9985927 C486.636414,73.3312384 484.05841,75.3686939 484.05841,78.5288288 C484.05841,81.8552866 486.802737,83.9343228 490.919229,83.9343228 Z M448.567756,37.1560096 L460.709328,37.1560096 L460.709328,47.4264482 L468.942311,47.4264482 L468.942311,56.5742072 L460.709328,56.5742072 L460.709328,77.905118 C460.709328,81.3147372 462.372556,82.9363854 465.948499,82.9363854 C467.029597,82.9363854 468.152277,82.853224 468.90073,82.7284818 L468.90073,91.6683372 C467.653308,91.9594023 465.574272,92.1673059 463.121009,92.1673059 C452.642667,92.1673059 448.567756,88.6745252 448.567756,79.9841541 L448.567756,56.5742072 L442.289067,56.5742072 L442.289067,47.4264482 L448.567756,47.4264482 L448.567756,37.1560096 Z M429.143961,78.3625059 L440.287595,78.3625059 C438.957012,87.0944577 430.973513,92.9573396 419.954622,92.9573396 C406.232983,92.9573396 398,84.1838071 398,69.9216192 C398,55.701012 406.316145,46.4700915 419.497234,46.4700915 C432.470419,46.4700915 440.661822,55.243624 440.661822,68.7989397 L440.661822,72.499624 L409.933667,72.499624 L409.933667,73.248077 C409.933667,79.6099276 413.966998,83.9759035 420.162525,83.9759035 C424.611663,83.9759035 428.021282,81.7721252 429.143961,78.3625059 Z M419.621976,55.4515277 C414.299643,55.4515277 410.474217,59.4848578 410.05841,65.0566746 L428.977638,65.0566746 C428.728154,59.3601156 425.02747,55.4515277 419.621976,55.4515277 Z M377.195855,92.7078553 C370.667682,92.7078553 365.677995,89.5477203 363.224732,84.35013 L362.975248,84.35013 L362.975248,92.000983 L351,92.000983 L351,32 L363.141571,32 L363.141571,55.1604626 L363.391055,55.1604626 C365.844318,49.8797108 370.792424,46.7195759 377.154275,46.7195759 C388.38107,46.7195759 395.28347,55.3267855 395.28347,69.7137156 C395.28347,84.0590649 388.422651,92.7078553 377.195855,92.7078553 Z M372.996202,56.449465 C367.13332,56.449465 363.09999,61.7302168 363.09999,69.7137156 C363.09999,77.7803758 367.09174,82.9363854 372.996202,82.9363854 C379.066988,82.9363854 382.850834,77.8635372 382.850834,69.7137156 C382.850834,61.6054746 379.025407,56.449465 372.996202,56.449465 Z M318.927479,92.7078553 C310.445012,92.7078553 304,87.2191999 304,79.1941204 C304,71.0858794 310.237108,66.3872577 321.339161,65.7219662 L332.565957,65.0566746 L332.565957,62.1044433 C332.565957,57.946371 329.655306,55.5346891 325.081426,55.5346891 C320.549128,55.5346891 317.680058,57.7800481 317.097928,61.0649252 L305.995875,61.0649252 C306.453263,52.4161349 313.813051,46.4700915 325.621976,46.4700915 C337.056675,46.4700915 344.499624,52.3745542 344.499624,61.3559903 L344.499624,92.000983 L332.77386,92.000983 L332.77386,85.1817444 L332.524376,85.1817444 C330.029532,89.9219468 324.499296,92.7078553 318.927479,92.7078553 Z M322.919229,83.9343228 C328.199981,83.9343228 332.565957,80.4831228 332.565957,75.6597589 L332.565957,72.4164625 L323.168713,72.9985927 C318.636414,73.3312384 316.05841,75.3686939 316.05841,78.5288288 C316.05841,81.8552866 318.802737,83.9343228 322.919229,83.9343228 Z M279.978689,37.1560096 L292.12026,37.1560096 L292.12026,47.4264482 L300.353243,47.4264482 L300.353243,56.5742072 L292.12026,56.5742072 L292.12026,77.905118 C292.12026,81.3147372 293.783489,82.9363854 297.359431,82.9363854 C298.44053,82.9363854 299.56321,82.853224 300.311663,82.7284818 L300.311663,91.6683372 C299.064241,91.9594023 296.985205,92.1673059 294.531942,92.1673059 C284.0536,92.1673059 279.978689,88.6745252 279.978689,79.9841541 L279.978689,56.5742072 L273.7,56.5742072 L273.7,47.4264482 L279.978689,47.4264482 L279.978689,37.1560096 Z M260.143961,78.3625059 L271.287595,78.3625059 C269.957012,87.0944577 261.973513,92.9573396 250.954622,92.9573396 C237.232983,92.9573396 229,84.1838071 229,69.9216192 C229,55.701012 237.316145,46.4700915 250.497234,46.4700915 C263.470419,46.4700915 271.661822,55.243624 271.661822,68.7989397 L271.661822,72.499624 L240.933667,72.499624 L240.933667,73.248077 C240.933667,79.6099276 244.966998,83.9759035 251.162525,83.9759035 C255.611663,83.9759035 259.021282,81.7721252 260.143961,78.3625059 Z M250.621976,55.4515277 C245.299643,55.4515277 241.474217,59.4848578 241.05841,65.0566746 L259.977638,65.0566746 C259.728154,59.3601156 256.02747,55.4515277 250.621976,55.4515277 Z M223.535344,92.000983 L212.35013,92.000983 L212.35013,51.501359 L212.017484,51.501359 L195.717841,92.000983 L187.817504,92.000983 L171.51786,51.501359 L171.185214,51.501359 L171.185214,92.000983 L160,92.000983 L160,32 L174.553253,32 L191.601349,75.0776288 L191.933995,75.0776288 L208.982091,32 L223.535344,32 L223.535344,92.000983 Z" id="Metabeta" fill="#032342"></path>
    </g>
</svg>